<?xml version="1.0" standalone="no"?>
<!DOCTYPE svg PUBLIC "-//W3C//DTD SVG 20010904//EN"
 "http://www.w3.org/TR/2001/REC-SVG-20010904/DTD/svg10.dtd">
<svg version="1.0" xmlns="http://www.w3.org/2000/svg"
 width="5906.000000pt" height="5906.000000pt" viewBox="0 0 5906.000000 5906.000000"
 preserveAspectRatio="xMidYMid meet">
<metadata>
Created by potrace 1.14, written by Peter Selinger 2001-2017
</metadata>
<g transform="translate(0.000000,5906.000000) scale(0.100000,-0.100000)"
fill="#000000" stroke="none">
<path d="M19400 47679 c-253 -14 -563 -59 -825 -120 -941 -217 -1829 -732
-2482 -1439 -786 -850 -1232 -1886 -1313 -3042 -7 -98 -10 -3444 -10 -10165 0
-10656 -2 -10146 44 -10488 205 -1524 1100 -2852 2446 -3628 243 -140 621
-308 890 -395 464 -151 865 -221 1385 -243 388 -16 20092 -7 20245 9 482 52
758 109 1155 239 242 79 414 151 667 278 1455 734 2460 2157 2662 3770 43 335
41 -68 41 10465 0 10552 2 10146 -41 10470 -64 493 -199 967 -403 1417 -468
1034 -1316 1900 -2343 2392 -604 290 -1204 443 -1878 481 -215 12 -20026 11
-20240 -1z m4183 -10223 c333 -100 584 -378 642 -713 42 -238 -7 -467 -141
-671 -46 -69 -142 -173 -474 -507 -229 -231 -1021 -1029 -1759 -1774 l-1343
-1354 544 -546 c1575 -1580 2958 -2982 3000 -3042 140 -198 198 -390 185 -613
-29 -506 -493 -899 -999 -846 -245 25 -432 116 -621 301 -52 52 -908 920
-1902 1929 -994 1009 -1898 1927 -2009 2039 -110 112 -216 218 -234 237 -18
19 -40 55 -49 81 -9 27 -24 57 -34 68 -10 11 -28 52 -40 90 -12 39 -28 83 -36
99 -22 43 -22 366 0 400 9 13 23 52 32 86 19 74 81 201 122 250 15 19 175 184
354 365 179 182 1119 1135 2089 2119 970 984 1790 1810 1823 1835 74 58 194
125 273 151 124 42 182 50 339 46 127 -3 164 -8 238 -30z m11597 4 c96 -27
229 -93 313 -156 54 -40 1658 -1659 4045 -4082 264 -269 299 -317 365 -497 59
-162 57 -412 -6 -590 -64 -185 -66 -187 -551 -675 -243 -245 -1195 -1210
-2116 -2144 -921 -934 -1704 -1721 -1740 -1748 -361 -275 -914 -232 -1226 94
-239 250 -319 595 -213 913 64 193 118 265 429 580 136 138 923 932 1749 1765
826 833 1500 1518 1499 1522 -2 4 -717 726 -1589 1605 -1868 1882 -1920 1936
-1983 2031 -57 87 -111 214 -133 315 -19 93 -20 281 0 373 58 270 244 510 491
632 153 75 239 92 441 87 116 -2 167 -8 225 -25z m-2935 -25 c440 -130 668
-595 506 -1030 -22 -57 0 -6 -896 -2140 -367 -874 -937 -2233 -1267 -3020
-1587 -3783 -1440 -3436 -1506 -3530 -128 -180 -331 -297 -565 -325 -195 -23
-385 29 -562 155 -140 99 -232 236 -291 430 -28 93 -26 295 4 400 24 84 3538
8456 3622 8631 117 242 303 390 562 449 99 23 281 14 393 -20z"/>
<path d="M7321 12694 c-169 -46 -302 -196 -330 -374 -15 -90 -15 -4960 0
-5050 14 -90 58 -180 121 -246 60 -64 109 -95 194 -124 58 -20 79 -21 916 -20
524 0 889 4 940 11 384 47 725 204 1001 460 338 313 525 706 568 1191 37 414
-94 853 -359 1203 -95 126 -284 305 -414 394 -27 17 -48 36 -48 41 0 5 23 44
51 87 154 236 236 497 246 791 16 454 -129 844 -432 1161 -244 255 -497 390
-875 468 -111 23 -1498 30 -1579 7z m1515 -947 c193 -65 340 -211 412 -409 24
-66 26 -87 26 -208 0 -119 -3 -144 -27 -216 -71 -214 -258 -389 -467 -438 -53
-13 -141 -16 -462 -16 l-398 0 0 661 0 660 418 -3 417 -3 81 -28z m275 -2243
c308 -58 565 -287 657 -584 59 -191 44 -425 -37 -605 -87 -192 -229 -335 -423
-424 -165 -77 -144 -75 -800 -79 l-588 -3 0 856 0 855 554 0 c463 0 567 -3
637 -16z"/>
<path d="M20120 12694 c-148 -40 -276 -170 -315 -319 -13 -51 -15 -171 -15
-867 l0 -807 -82 51 c-447 278 -1000 362 -1523 231 -677 -168 -1251 -732
-1449 -1422 -219 -762 -15 -1561 536 -2100 295 -288 623 -465 1010 -545 240
-50 584 -47 805 5 234 55 471 152 653 267 l64 41 22 -60 c28 -77 95 -163 164
-212 140 -98 356 -103 498 -13 50 31 135 123 160 172 56 109 52 -75 52 2679 0
2747 3 2570 -51 2677 -28 55 -121 151 -176 181 -102 55 -240 71 -353 41z
m-1264 -2579 c216 -38 405 -136 573 -298 378 -367 466 -961 212 -1432 -206
-382 -609 -615 -1021 -592 -630 37 -1111 618 -1050 1269 28 298 130 525 327
729 255 264 611 384 959 324z"/>
<path d="M26423 12695 c-72 -20 -119 -45 -177 -96 -70 -62 -121 -146 -140
-229 -18 -79 -21 -288 -6 -371 45 -234 275 -405 500 -370 126 20 193 55 273
140 92 98 127 212 127 411 0 118 -17 213 -51 284 -30 64 -115 155 -176 189
-102 55 -240 71 -350 42z"/>
<path d="M41810 12694 c-148 -40 -276 -170 -315 -319 -13 -51 -15 -172 -15
-867 l0 -808 -82 52 c-500 314 -1159 379 -1718 171 -596 -222 -1077 -744
-1254 -1362 -106 -371 -114 -766 -21 -1132 94 -370 284 -700 557 -968 295
-288 623 -465 1010 -545 240 -50 584 -47 805 5 234 55 471 152 653 267 l64 41
22 -60 c28 -77 95 -163 164 -212 143 -100 365 -103 504 -8 55 38 129 119 154
167 56 109 52 -74 52 2679 0 2747 3 2570 -51 2677 -28 55 -121 151 -176 181
-102 55 -240 71 -353 41z m-1264 -2579 c216 -38 405 -136 573 -298 378 -367
466 -961 212 -1432 -206 -382 -609 -615 -1021 -592 -630 37 -1111 618 -1050
1269 23 242 95 435 228 613 253 340 660 509 1058 440z"/>
<path d="M13440 11040 c-287 -23 -544 -96 -780 -222 -774 -411 -1212 -1284
-1084 -2158 122 -833 726 -1519 1517 -1721 215 -55 542 -75 785 -48 428 46
804 203 1126 469 160 133 212 238 186 379 -41 222 -186 341 -415 341 -97 0
-226 -47 -297 -108 -83 -72 -227 -142 -369 -180 -150 -40 -211 -47 -404 -47
-161 1 -204 4 -284 23 -236 56 -438 162 -594 311 -98 94 -158 173 -212 281
-37 74 -105 262 -105 290 0 7 470 10 1358 10 1495 0 1412 -3 1534 62 137 73
207 218 194 403 -13 196 -64 436 -132 622 -222 616 -731 1077 -1360 1233 -208
52 -469 75 -664 60z m271 -811 c259 -44 491 -136 660 -263 105 -79 246 -225
319 -331 49 -72 119 -220 120 -252 0 -10 -241 -13 -1170 -13 -1108 0 -1170 1
-1170 18 0 35 59 184 100 254 92 156 240 320 360 399 168 111 373 177 646 208
6 0 67 -8 135 -20z"/>
<path d="M28796 11039 c-186 -27 -336 -180 -366 -374 -7 -48 -10 -597 -8
-1750 3 -1531 5 -1684 20 -1726 70 -197 223 -309 422 -309 126 0 213 33 303
114 69 62 109 125 138 219 l25 78 0 1043 c0 1150 0 1144 62 1295 134 326 424
518 778 514 389 -3 719 -253 823 -622 21 -75 22 -88 27 -1181 6 -1207 2 -1139
63 -1243 32 -54 121 -138 177 -167 141 -72 311 -67 436 13 51 32 127 114 152
163 55 108 53 57 49 1275 -3 983 -5 1135 -19 1209 -74 388 -222 674 -488 941
-279 280 -575 428 -990 494 -148 24 -372 22 -520 -4 -159 -27 -321 -82 -477
-161 l-131 -67 -12 25 c-20 45 -81 111 -137 148 -98 65 -209 90 -327 73z"/>
<path d="M35130 11040 c-483 -39 -895 -224 -1244 -560 -483 -465 -718 -1153
-620 -1820 123 -842 740 -1534 1539 -1725 221 -53 524 -70 763 -44 428 46 804
203 1126 469 160 133 212 238 186 379 -41 222 -186 341 -415 341 -97 0 -226
-47 -297 -108 -80 -69 -232 -144 -362 -178 -199 -53 -442 -69 -617 -39 -260
43 -498 158 -672 324 -98 94 -158 173 -212 281 -37 74 -105 262 -105 290 0 7
470 10 1358 10 1495 0 1412 -3 1534 62 137 73 207 218 194 403 -13 196 -64
436 -132 622 -222 616 -731 1077 -1360 1233 -208 52 -469 75 -664 60z m271
-811 c259 -44 491 -136 660 -263 105 -79 246 -225 319 -331 49 -72 119 -220
120 -252 0 -10 -241 -13 -1170 -13 -1108 0 -1170 1 -1170 18 0 35 59 184 100
254 92 156 240 320 360 399 168 111 373 177 646 208 6 0 67 -8 135 -20z"/>
<path d="M45590 11040 c-287 -23 -544 -96 -780 -222 -774 -411 -1212 -1284
-1084 -2158 122 -833 726 -1519 1517 -1721 215 -55 542 -75 785 -48 428 46
804 203 1126 469 160 133 212 238 186 379 -41 222 -186 341 -415 341 -97 0
-226 -47 -297 -108 -83 -72 -227 -142 -369 -180 -149 -40 -211 -47 -404 -47
-172 0 -200 3 -296 27 -241 61 -426 159 -582 307 -98 94 -158 173 -212 281
-37 74 -105 262 -105 290 0 7 470 10 1358 10 1495 0 1412 -3 1534 62 137 73
207 218 194 403 -13 196 -64 436 -132 622 -222 616 -731 1077 -1360 1233 -208
52 -469 75 -664 60z m271 -811 c259 -44 491 -136 660 -263 105 -79 246 -225
319 -331 49 -72 119 -220 120 -252 0 -10 -241 -13 -1170 -13 -1108 0 -1170 1
-1170 18 0 35 59 184 100 254 92 156 240 320 360 399 168 111 373 177 646 208
6 0 67 -8 135 -20z"/>
<path d="M22815 11034 c-144 -20 -284 -114 -344 -232 -52 -103 -51 -38 -51
-1837 0 -1794 -1 -1745 51 -1846 27 -55 119 -151 173 -183 129 -75 323 -75
455 1 94 55 166 139 205 241 21 56 21 68 26 907 l5 850 54 135 c97 243 217
455 370 655 147 193 387 361 581 409 36 8 121 20 190 25 137 10 198 28 273 79
47 33 98 91 134 152 65 111 72 273 16 392 -38 82 -99 149 -172 191 -104 61
-203 75 -396 57 -220 -19 -394 -65 -588 -152 -182 -82 -294 -153 -394 -252
l-73 -70 0 37 c0 196 -143 378 -335 426 -51 12 -141 20 -180 15z"/>
<path d="M26440 11026 c-169 -38 -294 -164 -335 -337 -13 -56 -15 -279 -15
-1734 0 -1823 -2 -1738 57 -1847 38 -69 130 -153 210 -191 59 -27 81 -32 168
-35 109 -4 188 14 263 62 58 36 130 114 157 170 57 116 55 50 55 1836 0 1062
-4 1668 -10 1710 -41 260 -288 425 -550 366z"/>
<path d="M48962 10969 c-124 -20 -272 -126 -329 -236 -57 -109 -66 -213 -27
-327 9 -27 324 -785 700 -1685 l683 -1636 73 -76 c93 -97 137 -118 269 -130
112 -11 185 -1 251 32 40 20 163 152 189 202 21 40 1353 3190 1384 3272 63
166 29 322 -96 448 -139 138 -339 178 -499 97 -72 -36 -161 -123 -195 -189
-13 -27 -103 -233 -199 -458 -95 -224 -298 -698 -449 -1053 -151 -355 -288
-675 -303 -712 -15 -38 -30 -68 -33 -68 -3 0 -213 489 -465 1088 -252 598
-475 1121 -495 1162 -64 133 -205 249 -323 265 -24 4 -52 8 -63 9 -11 2 -44
-1 -73 -5z"/>
</g>
</svg>
